<svg xmlns="http://www.w3.org/2000/svg" viewBox="0 0 237 56">
  <path fill="currentColor" d="M 0.5 28.84375 C 0.5 25.617188 0.867188 22.390625 1.609375 19.171875 C 2.347656 15.945313 3.335938 12.792969 4.578125 9.71875 C 5.824219 6.648438 7.328125 3.375 9.078125 -0.09375 L 22.875 -0.09375 C 22.269531 1.199219 21.464844 2.933594 20.46875 5.109375 C 19.46875 7.277344 18.460938 9.679688 17.453125 12.3125 C 16.441406 14.9375 15.570313 17.707031 14.84375 20.609375 C 14.125 23.507813 13.765625 26.167969 13.765625 28.59375 C 13.765625 30.90625 14.144531 32.757813 14.90625 34.140625 C 15.675781 35.527344 16.757813 36.511719 18.15625 37.09375 C 19.558594 37.667969 21.257813 37.953125 23.25 37.953125 L 27.921875 37.953125 L 27.921875 -0.09375 L 40.828125 -0.09375 L 40.828125 49 L 20 49 C 13.269531 49 8.335938 47.183594 5.203125 43.546875 C 2.066406 39.914063 0.5 35.011719 0.5 28.84375 Z M 88.335938 -0.09375 L 88.335938 49 L 75.429688 49 L 75.429688 34.59375 L 61.945313 18.03125 L 61.835938 18.03125 L 61.835938 49 L 48.929688 49 L 48.929688 -0.09375 L 61.101563 -0.09375 L 75.429688 16.65625 L 75.429688 -0.09375 Z M 109.898438 -0.09375 L 109.898438 49 L 96.992188 49 L 96.992188 -0.09375 Z M 116.179688 37.953125 L 127.820313 37.953125 C 129.472656 37.953125 130.683594 37.867188 131.445313 37.6875 C 132.214844 37.503906 132.601563 37.054688 132.601563 36.34375 C 132.601563 35.898438 132.484375 35.476563 132.257813 35.078125 C 132.027344 34.683594 131.671875 34.230469 131.195313 33.71875 C 130.726563 33.199219 130.480469 32.933594 130.460938 32.921875 L 121.820313 23.09375 C 120.539063 21.667969 119.496094 20.429688 118.695313 19.375 C 117.890625 18.324219 117.1875 17.09375 116.585938 15.6875 C 115.992188 14.285156 115.695313 12.808594 115.695313 11.265625 C 115.695313 9.144531 116.195313 7.214844 117.195313 5.484375 C 118.191406 3.757813 119.6875 2.398438 121.679688 1.40625 C 123.667969 0.410156 126.09375 -0.09375 128.960938 -0.09375 L 142.820313 -0.09375 L 145.820313 11.015625 L 134.945313 11.015625 C 133.308594 11.015625 132.121094 11.113281 131.382813 11.296875 C 130.640625 11.484375 130.273438 11.957031 130.273438 12.703125 C 130.273438 13.183594 130.386719 13.613281 130.617188 13.984375 C 130.84375 14.351563 131.429688 15.042969 132.367188 16.0625 L 141.367188 26.015625 C 143.207031 28.007813 144.667969 29.886719 145.742188 31.65625 C 146.824219 33.429688 147.367188 35.492188 147.367188 37.84375 C 147.34375 39.710938 147.003906 41.347656 146.351563 42.75 C 145.695313 44.15625 144.765625 45.324219 143.570313 46.25 C 142.382813 47.179688 140.988281 47.871094 139.398438 48.328125 C 137.8125 48.777344 136.050781 49 134.117188 49 L 119.117188 49 Z M 156.984375 55.90625 C 154.910156 52.84375 153.117188 49.238281 151.609375 45.09375 C 150.109375 40.941406 149.359375 36.417969 149.359375 31.53125 C 149.359375 28.628906 149.710938 25.605469 150.421875 22.46875 C 151.136719 19.335938 152.363281 16.277344 154.09375 13.296875 C 155.820313 10.320313 158.125 7.761719 161 5.625 C 163.851563 3.449219 166.863281 1.953125 170.03125 1.140625 C 173.195313 0.320313 177.25 -0.09375 182.1875 -0.09375 L 188.53125 -0.09375 L 191.59375 11.015625 L 181.515625 11.015625 C 178.828125 11.015625 176.351563 11.320313 174.09375 11.921875 C 171.832031 12.515625 169.789063 13.652344 167.96875 15.328125 C 166.15625 17.007813 164.773438 19.367188 163.828125 22.40625 L 176.59375 22.40625 L 176.59375 12.46875 L 189.453125 12.46875 L 189.453125 49 L 176.59375 49 L 176.59375 33.40625 L 162.5 33.40625 C 162.5 35.980469 162.976563 38.695313 163.9375 41.546875 C 164.894531 44.402344 166.054688 46.886719 167.421875 49 Z M 237.191406 -0.09375 L 237.191406 49 L 224.285156 49 L 224.285156 34.59375 L 210.800781 18.03125 L 210.691406 18.03125 L 210.691406 49 L 197.785156 49 L 197.785156 -0.09375 L 209.957031 -0.09375 L 224.285156 16.65625 L 224.285156 -0.09375 Z M 237.191406 -0.09375"/>
</svg>